<?xml version="1.0" standalone="no"?>
<!DOCTYPE svg PUBLIC "-//W3C//DTD SVG 20010904//EN"
 "http://www.w3.org/TR/2001/REC-SVG-20010904/DTD/svg10.dtd">
<svg version="1.0" xmlns="http://www.w3.org/2000/svg"
 width="736.000000pt" height="736.000000pt" viewBox="0 0 736.000000 736.000000"
 preserveAspectRatio="xMidYMid meet">

<g transform="translate(0.000000,736.000000) scale(0.100000,-0.100000)"
fill="#000000" stroke="none">
<path d="M3425 5794 c-130 -17 -343 -72 -470 -119 -558 -209 -998 -638 -1229
-1197 -162 -393 -200 -878 -100 -1287 33 -133 95 -313 145 -420 22 -47 42
-101 45 -120 4 -26 -18 -123 -81 -356 -94 -348 -102 -408 -71 -502 36 -108
138 -181 264 -191 61 -4 99 4 357 71 449 116 421 114 563 53 192 -82 422 -144
620 -167 150 -17 457 -7 602 19 898 163 1588 858 1740 1754 48 285 32 591 -46
893 -134 519 -477 980 -947 1271 -247 153 -548 261 -835 299 -139 18 -420 18
-557 -1z m550 -209 c401 -60 766 -242 1064 -530 241 -233 398 -486 499 -805
76 -240 106 -541 78 -779 -87 -731 -565 -1340 -1251 -1596 -220 -82 -411 -115
-666 -115 -284 0 -473 39 -761 156 -229 94 -200 96 -789 -62 -193 -52 -239
-55 -274 -19 -36 36 -33 73 31 306 100 369 127 488 120 537 -3 25 -27 90 -52
144 -94 206 -150 395 -180 604 -24 175 -15 454 21 624 122 581 473 1053 988
1325 180 95 418 176 607 205 41 7 82 13 90 15 52 10 388 3 475 -10z"/>
<path d="M3610 5293 c-171 -12 -387 -63 -541 -127 -189 -80 -355 -193 -509
-346 -226 -226 -370 -492 -442 -816 -19 -85 -22 -130 -22 -319 -1 -191 2 -233
21 -321 33 -147 76 -272 148 -424 76 -160 85 -192 85 -289 0 -58 -10 -110 -50
-249 -27 -97 -50 -182 -50 -190 0 -18 46 -10 210 35 161 45 194 52 255 52 76
1 166 -24 299 -83 255 -113 416 -149 671 -149 205 -1 308 13 495 70 247 74
448 194 644 382 396 382 571 949 460 1490 -150 728 -790 1264 -1534 1283 -58
2 -121 2 -140 1z m-487 -705 c42 -28 75 -73 97 -128 7 -19 40 -97 72 -173 34
-80 58 -152 58 -172 0 -51 -21 -96 -84 -176 -69 -88 -77 -122 -43 -183 65
-116 218 -290 336 -381 129 -98 315 -195 377 -195 50 0 67 12 120 83 69 92
124 145 159 157 36 12 78 -3 315 -117 149 -71 176 -91 189 -140 13 -45 -4
-155 -33 -218 -61 -131 -250 -234 -429 -235 -133 0 -388 71 -575 160 -308 147
-556 372 -791 720 -105 155 -144 228 -182 340 -28 83 -32 109 -33 200 0 113
16 186 59 270 39 75 112 158 167 190 47 27 60 31 118 28 50 -3 74 -10 103 -30z"/>
</g>
</svg>
